<svg xmlns="http://www.w3.org/2000/svg" viewBox="0 0 64 48" fill="none">
  <path d="M48 42H16C7.2 42 0 34.8 0 26c0-7.5 5.6-13.7 12.8-14.8C14.5 5.3 21.3 0 29.5 0c7.2 0 13.4 4.5 15.8 10.9C53.9 11.3 60 17.1 60 24.5 60 34.2 52.2 42 42.5 42H48z" fill="#6b8ec6"/>
  <circle cx="19" cy="22" r="3" fill="#ffffff"/>
  <circle cx="29" cy="17" r="3.5" fill="#ffffff"/>
  <circle cx="39" cy="22" r="3" fill="#ffffff"/>
  <path d="M26 30c1.7 0 3-1.3 3-3s-1.3-3-3-3-3 1.3-3 3 1.3 3 3 3z" fill="#e8a060"/>
  <path d="M38 30c1.7 0 3-1.3 3-3s-1.3-3-3-3-3 1.3-3 3 1.3 3 3 3z" fill="#e8a060"/>
</svg>